<?xml version="1.0" encoding="UTF-8"?>
<svg id="katman_1" data-name="katman 1" xmlns="http://www.w3.org/2000/svg" xmlns:xlink="http://www.w3.org/1999/xlink" viewBox="0 0 998.63 1080">
  <defs>
    <style>
      .cls-1 {
        fill: url(#Adsız_degrade_3-2);
      }

      .cls-2 {
        fill: url(#Adsız_degrade_3);
      }

      .cls-3 {
        fill: #ed7121;
      }

      .cls-4 {
        fill: none;
      }

      .cls-5 {
        clip-path: url(#clippath-1);
      }

      .cls-6 {
        fill: url(#Adsız_degrade_3-3);
      }

      .cls-7 {
        clip-path: url(#clippath-2);
      }

      .cls-8 {
        clip-path: url(#clippath);
      }
    </style>
    <clipPath id="clippath">
      <path class="cls-4" d="M193.89,376.03c54.61,197.36,223.47,422.75,393.66,535.53,195.07,129.27,391.14,108.61,349.22-171.9l-20.83,76.51c-48.49,84.39-134.05,72.92-212.28,39.24-200.94-86.51-443.51-413.23-421.21-637.76,5.86-59.02,41.67-108.36,102.35-117.46l77.41.08c-56.78-25.78-104.86-37.48-144.55-37.48-135.24,0-172.83,135.9-123.76,313.26"/>
    </clipPath>
    <linearGradient id="Adsız_degrade_3" data-name="Adsız degrade 3" x1="1.03" y1="1080.08" x2="2.81" y2="1080.08" gradientTransform="translate(-272.09 468064.52) scale(432.85 -432.85)" gradientUnits="userSpaceOnUse">
      <stop offset="0" stop-color="#f0981b"/>
      <stop offset=".61" stop-color="#e95338"/>
      <stop offset="1" stop-color="#e95338"/>
    </linearGradient>
    <clipPath id="clippath-1">
      <path class="cls-4" d="M392.24,157.64c117.69,10.99,211.71,87.49,289.63,170.19l-24.8,27.08,79.92,35.03v-89.92l-34.83,12.74c-46.92-49.03-99.4-98.78-160.61-129.52-32.15-16.14-72.8-31.88-111-31.88-13.21,0-26.13,1.88-38.3,6.28"/>
    </clipPath>
    <linearGradient id="Adsız_degrade_3-2" data-name="Adsız degrade 3" x1="1.56" y1="1080.9" x2="3.34" y2="1080.9" gradientTransform="translate(89.97 209967.19) scale(194 -194)" xlink:href="#Adsız_degrade_3"/>
    <clipPath id="clippath-2">
      <path class="cls-4" d="M806.96,594.74l23.22-9.5,9.16,4.56c24.22,71.82,40.99,159.53-7.43,224.72,5.46,5.46,28.59-20.2,32.15-25.25,43.62-61.79,17.42-150.87-.71-217.23l23.49-12.32c1.56-7.21-.69-8.09-5.19-12.21-15.05-13.78-51.97-28.66-69.68-42.67l-5.02,89.9Z"/>
    </clipPath>
    <linearGradient id="Adsız_degrade_3-3" data-name="Adsız degrade 3" x1="7.36" y1="1080.03" x2="9.14" y2="1080.03" gradientTransform="translate(471.81 49842.7) scale(45.54 -45.54)" xlink:href="#Adsız_degrade_3"/>
  </defs>
  <g class="cls-8">
    <rect class="cls-2" x="144.82" y="62.77" width="833.87" height="978.06"/>
  </g>
  <path class="cls-3" d="M217.42,20.32l-49.59,27.77c-37.79,27.93-61.47,83.18-65.47,129.36-26.13,301.75,287.17,727.5,554.77,849.36l89.82,32.49c-24.26,2.12-47.88-4.94-70.99-11.36C382.64,966.46,30.21,488.28,57.66,182.7,65.85,91.58,120.57,19.58,217.42,20.32"/>
  <g class="cls-5">
    <rect class="cls-1" x="392.24" y="151.36" width="344.75" height="238.58"/>
  </g>
  <g class="cls-7">
    <rect class="cls-6" x="806.96" y="504.84" width="100.72" height="315.14"/>
  </g>
</svg>